<svg viewBox="0 0 800 550" xmlns="http://www.w3.org/2000/svg" role="img" aria-label="Aura product photography">
  <defs>
    <linearGradient id="ap-bg" x1="0" y1="0" x2="0" y2="1">
      <stop offset="0" stop-color="#f6efe8"/><stop offset="1" stop-color="#e9ddd2"/>
    </linearGradient>
    <linearGradient id="ap-bottle" x1="0" y1="0" x2="0" y2="1">
      <stop offset="0" stop-color="#ffffff"/><stop offset="1" stop-color="#f0e3d9"/>
    </linearGradient>
    <radialGradient id="ap-sh" cx="0.5" cy="0.5" r="0.5">
      <stop offset="0" stop-color="#b59a86" stop-opacity="0.45"/><stop offset="1" stop-color="#b59a86" stop-opacity="0"/>
    </radialGradient>
  </defs>
  <rect width="800" height="550" fill="url(#ap-bg)"/>
  <polygon points="120,0 360,0 230,330 60,330" fill="#ffffff" opacity="0.4"/>
  <ellipse cx="400" cy="430" rx="190" ry="40" fill="url(#ap-sh)"/>
  <rect x="250" y="360" width="300" height="14" rx="7" fill="#d8c4b4"/>
  <rect x="356" y="170" width="88" height="200" rx="20" fill="url(#ap-bottle)" stroke="#0000000a"/>
  <rect x="380" y="142" width="40" height="36" rx="7" fill="#dcc2b2"/>
  <rect x="372" y="250" width="56" height="78" rx="8" fill="#1d1d1f" opacity="0.05"/>
  <line x1="400" y1="256" x2="400" y2="322" stroke="#1d1d1f" stroke-opacity="0.16"/>
  <text x="400" y="294" text-anchor="middle" font-family="Inter, Arial, sans-serif" font-size="11" letter-spacing="4" fill="#1d1d1f" opacity="0.45">AURA</text>
  <path d="M250 360 q -10 -70 -46 -96 q 30 8 46 40 q 6 -34 30 -52 q -8 36 -30 56 Z" fill="#a9c6b4"/>
  <text x="40" y="520" font-family="Inter, Arial, sans-serif" font-size="13" letter-spacing="5" fill="#9a8472">PRODUCT &amp; LIFESTYLE PHOTOGRAPHY</text>
</svg>
