<svg viewBox="0 0 800 550" xmlns="http://www.w3.org/2000/svg" role="img" aria-label="Aura Skincare launch">
  <defs>
    <linearGradient id="au-bg" x1="0" y1="0" x2="1" y2="1">
      <stop offset="0" stop-color="#22323a"/><stop offset="1" stop-color="#0e1820"/>
    </linearGradient>
    <radialGradient id="au-halo" cx="0.5" cy="0.46" r="0.5">
      <stop offset="0" stop-color="#ffd2c0" stop-opacity="0.95"/>
      <stop offset="0.45" stop-color="#ff7a8a" stop-opacity="0.5"/>
      <stop offset="1" stop-color="#ff7a8a" stop-opacity="0"/>
    </radialGradient>
    <linearGradient id="au-bottle" x1="0" y1="0" x2="0" y2="1">
      <stop offset="0" stop-color="#fbeede"/><stop offset="1" stop-color="#e8c7b8"/>
    </linearGradient>
  </defs>
  <rect width="800" height="550" fill="url(#au-bg)"/>
  <ellipse cx="400" cy="250" rx="260" ry="260" fill="url(#au-halo)"/>
  <!-- minimalist bottle -->
  <rect x="360" y="170" width="80" height="200" rx="18" fill="url(#au-bottle)"/>
  <rect x="382" y="146" width="36" height="34" rx="6" fill="#d8b3a2"/>
  <rect x="372" y="250" width="56" height="74" rx="8" fill="#22323a" opacity="0.18"/>
  <line x1="400" y1="255" x2="400" y2="318" stroke="#22323a" stroke-opacity="0.25"/>
  <text x="400" y="446" text-anchor="middle" font-family="Sora, Arial, sans-serif" font-weight="300" font-size="58" letter-spacing="20" fill="#fbeede">AURA</text>
  <text x="400" y="478" text-anchor="middle" font-family="Sora, Arial, sans-serif" font-size="13" letter-spacing="8" fill="#ffb3a0">SKINCARE · CAMPAIGN</text>
  <g transform="translate(724 64) scale(0.42) translate(-50 -50)" fill="none" stroke="#ffd2c0" stroke-opacity="0.4" stroke-width="3.4" stroke-linecap="round" stroke-linejoin="round">
    <line x1="50" y1="5" x2="62.99" y2="42.5"/><line x1="88.97" y1="27.5" x2="62.99" y2="57.5"/><line x1="88.97" y1="72.5" x2="50" y2="65"/><line x1="50" y1="95" x2="37.01" y2="57.5"/><line x1="11.03" y1="72.5" x2="37.01" y2="42.5"/><line x1="11.03" y1="27.5" x2="50" y2="35"/>
    <path d="M 50 35 L 62.99 42.5 L 62.99 57.5 L 50 65 L 37.01 57.5 L 37.01 42.5 Z"/>
  </g>
</svg>
