<svg viewBox="0 0 800 550" xmlns="http://www.w3.org/2000/svg" role="img" aria-label="Aura Skincare launch">
  <defs>
    <radialGradient id="au-halo" cx="0.5" cy="0.44" r="0.5">
      <stop offset="0" stop-color="#ffe9e0" stop-opacity="1"/>
      <stop offset="0.5" stop-color="#ffd0d8" stop-opacity="0.7"/>
      <stop offset="1" stop-color="#ffd0d8" stop-opacity="0"/>
    </radialGradient>
    <linearGradient id="au-bottle" x1="0" y1="0" x2="0" y2="1">
      <stop offset="0" stop-color="#ffffff"/><stop offset="1" stop-color="#f0e2da"/>
    </linearGradient>
  </defs>
  <rect width="800" height="550" fill="#f7f1ee"/>
  <ellipse cx="400" cy="250" rx="280" ry="270" fill="url(#au-halo)"/>
  <rect x="360" y="170" width="80" height="200" rx="18" fill="url(#au-bottle)" stroke="#0000000d"/>
  <rect x="382" y="146" width="36" height="34" rx="6" fill="#e3cabd"/>
  <rect x="372" y="250" width="56" height="74" rx="8" fill="#1d1d1f" opacity="0.05"/>
  <line x1="400" y1="255" x2="400" y2="318" stroke="#1d1d1f" stroke-opacity="0.18"/>
  <text x="400" y="446" text-anchor="middle" font-family="Inter, Arial, sans-serif" font-weight="300" font-size="58" letter-spacing="20" fill="#1d1d1f">AURA</text>
  <text x="400" y="478" text-anchor="middle" font-family="Inter, Arial, sans-serif" font-size="13" letter-spacing="8" fill="#c25a66">SKINCARE · CAMPAIGN</text>
  <g transform="translate(724 66) scale(0.42) translate(-50 -50)" fill="none" stroke="#1d1d1f" stroke-opacity="0.28" stroke-width="3.4" stroke-linecap="round" stroke-linejoin="round">
    <line x1="50" y1="5" x2="62.99" y2="42.5"/><line x1="88.97" y1="27.5" x2="62.99" y2="57.5"/><line x1="88.97" y1="72.5" x2="50" y2="65"/><line x1="50" y1="95" x2="37.01" y2="57.5"/><line x1="11.03" y1="72.5" x2="37.01" y2="42.5"/><line x1="11.03" y1="27.5" x2="50" y2="35"/>
    <path d="M 50 35 L 62.99 42.5 L 62.99 57.5 L 50 65 L 37.01 57.5 L 37.01 42.5 Z"/>
  </g>
</svg>
