<svg viewBox="0 0 800 550" xmlns="http://www.w3.org/2000/svg" role="img" aria-label="Pulse title sequence">
  <defs>
    <linearGradient id="pl-bg" x1="0" y1="0" x2="1" y2="1">
      <stop offset="0" stop-color="#1c1608"/><stop offset="1" stop-color="#0a0a0b"/>
    </linearGradient>
    <linearGradient id="pl-bar" x1="0" y1="1" x2="0" y2="0">
      <stop offset="0" stop-color="#e7b15a"/><stop offset="0.5" stop-color="#f0883e"/><stop offset="1" stop-color="#ff5d4d"/>
    </linearGradient>
  </defs>
  <rect width="800" height="550" fill="url(#pl-bg)"/>
  <!-- grid -->
  <g stroke="#ffffff" stroke-opacity="0.05">
    <line x1="0" y1="137" x2="800" y2="137"/><line x1="0" y1="275" x2="800" y2="275"/><line x1="0" y1="412" x2="800" y2="412"/>
    <line x1="200" y1="0" x2="200" y2="550"/><line x1="400" y1="0" x2="400" y2="550"/><line x1="600" y1="0" x2="600" y2="550"/>
  </g>
  <!-- equalizer bars -->
  <g fill="url(#pl-bar)">
    <rect x="70"  y="300" width="26" height="100" rx="6"/>
    <rect x="116" y="240" width="26" height="160" rx="6"/>
    <rect x="162" y="160" width="26" height="240" rx="6"/>
    <rect x="208" y="220" width="26" height="180" rx="6"/>
    <rect x="254" y="120" width="26" height="280" rx="6"/>
    <rect x="300" y="200" width="26" height="200" rx="6"/>
    <rect x="346" y="270" width="26" height="130" rx="6"/>
    <rect x="392" y="150" width="26" height="250" rx="6"/>
    <rect x="438" y="230" width="26" height="170" rx="6"/>
    <rect x="484" y="180" width="26" height="220" rx="6"/>
    <rect x="530" y="260" width="26" height="140" rx="6"/>
    <rect x="576" y="190" width="26" height="210" rx="6"/>
    <rect x="622" y="290" width="26" height="110" rx="6"/>
    <rect x="668" y="210" width="26" height="190" rx="6"/>
  </g>
  <text x="70" y="468" font-family="Sora, Arial, sans-serif" font-weight="800" font-size="60" letter-spacing="-1" fill="#f4f3f1">PULSE</text>
  <text x="74" y="498" font-family="Sora, Arial, sans-serif" font-size="13" letter-spacing="6" fill="#f0a060">TITLE SEQUENCE · MOTION</text>
  <g transform="translate(720 470) scale(0.42) translate(-50 -50)" fill="none" stroke="#ffffff" stroke-opacity="0.22" stroke-width="3.4" stroke-linecap="round" stroke-linejoin="round">
    <line x1="50" y1="5" x2="62.99" y2="42.5"/><line x1="88.97" y1="27.5" x2="62.99" y2="57.5"/><line x1="88.97" y1="72.5" x2="50" y2="65"/><line x1="50" y1="95" x2="37.01" y2="57.5"/><line x1="11.03" y1="72.5" x2="37.01" y2="42.5"/><line x1="11.03" y1="27.5" x2="50" y2="35"/>
    <path d="M 50 35 L 62.99 42.5 L 62.99 57.5 L 50 65 L 37.01 57.5 L 37.01 42.5 Z"/>
  </g>
</svg>
